<svg xmlns="http://www.w3.org/2000/svg" width="149" height="139" viewBox="0 0 149 139" fill="none">
  <path d="M70.5496 0.18721C46.3861 3.93153 26.2289 18.5343 16.0878 39.6273C6.3222 59.7218 6.5726 80.9395 16.7138 101.284C19.0926 106.276 21.0957 110.769 21.0957 111.393C21.0957 111.892 16.3382 117.259 10.4538 123.001C-6.19775 139.476 -8.20095 138.477 44.2577 138.976C71.5511 139.101 90.4563 138.727 94.4627 137.978C118.501 132.985 140.411 111.643 146.796 87.18C157.688 45.2438 126.889 2.93304 83.4451 0.18721C78.4371 -0.0624084 72.6779 -0.0624084 70.5496 0.18721ZM97.8431 12.0442C107.984 15.4141 115.747 20.4065 123.509 28.644C154.934 61.7187 138.783 117.01 94.3375 128.617C88.4531 130.115 79.3135 130.489 51.2688 130.489H15.587L23.9753 122.002C28.6077 117.384 32.3637 112.641 32.3637 111.393C32.3637 110.27 30.7361 106.9 28.6077 104.154C26.6045 101.284 23.7249 95.9168 22.3477 92.1725C9.95299 59.0977 26.4793 23.6516 59.6572 12.2938C70.9252 8.5495 86.8255 8.29988 97.8431 12.0442Z" fill="#FF734D"/>
</svg>