<svg xmlns="http://www.w3.org/2000/svg" width="32" height="32" viewBox="0 0 32 32" fill="none">
  <path d="M14.0327 22.0665L23.466 12.6332L21.9327 11.1332L14.0327 19.0332L10.0327 15.0332L8.53268 16.5332L14.0327 22.0665ZM15.9993 29.3332C14.1771 29.3332 12.4549 28.9832 10.8327 28.2832C9.21046 27.5832 7.79379 26.6276 6.58268 25.4165C5.37157 24.2054 4.41602 22.7887 3.71602 21.1665C3.01602 19.5443 2.66602 17.8221 2.66602 15.9998C2.66602 14.1554 3.01602 12.4221 3.71602 10.7998C4.41602 9.17761 5.37157 7.7665 6.58268 6.5665C7.79379 5.3665 9.21046 4.4165 10.8327 3.7165C12.4549 3.0165 14.1771 2.6665 15.9993 2.6665C17.8438 2.6665 19.5771 3.0165 21.1993 3.7165C22.8216 4.4165 24.2327 5.3665 25.4327 6.5665C26.6327 7.7665 27.5827 9.17761 28.2827 10.7998C28.9827 12.4221 29.3327 14.1554 29.3327 15.9998C29.3327 17.8221 28.9827 19.5443 28.2827 21.1665C27.5827 22.7887 26.6327 24.2054 25.4327 25.4165C24.2327 26.6276 22.8216 27.5832 21.1993 28.2832C19.5771 28.9832 17.8438 29.3332 15.9993 29.3332ZM15.9993 27.3332C19.1549 27.3332 21.8327 26.2276 24.0327 24.0165C26.2327 21.8054 27.3327 19.1332 27.3327 15.9998C27.3327 12.8443 26.2327 10.1665 24.0327 7.9665C21.8327 5.7665 19.1549 4.6665 15.9993 4.6665C12.866 4.6665 10.1938 5.7665 7.98268 7.9665C5.77157 10.1665 4.66602 12.8443 4.66602 15.9998C4.66602 19.1332 5.77157 21.8054 7.98268 24.0165C10.1938 26.2276 12.866 27.3332 15.9993 27.3332Z" fill="url(#paint0_linear_119_1704)"/>
  <defs>
    <linearGradient id="paint0_linear_119_1704" x1="2.66602" y1="2.6665" x2="29.3327" y2="29.3332" gradientUnits="userSpaceOnUse">
      <stop stop-color="#FF734D"/>
      <stop offset="1" stop-color="#FED25B"/>
    </linearGradient>
  </defs>
</svg>