<svg xmlns="http://www.w3.org/2000/svg" width="141" height="22" viewBox="0 0 141 22" fill="none">
  <path d="M20.9909 0.529785C20.9909 1.24774 20.8507 1.92581 20.5705 2.564C20.3102 3.20218 19.9398 3.76059 19.4593 4.23923C18.9789 4.71786 18.4183 5.09679 17.7777 5.37599C17.137 5.6552 16.4564 5.7948 15.7356 5.7948H6.57654C6.2362 5.7948 5.97594 5.8646 5.79576 6.0042C5.61558 6.14381 5.48545 6.29338 5.40537 6.45293C5.30527 6.65236 5.25523 6.86176 5.25523 7.08114V9.05552H14.4143C14.4143 9.6937 14.2942 10.292 14.054 10.8504C13.8137 11.3889 13.4834 11.8675 13.063 12.2863C12.6626 12.6852 12.1821 13.0043 11.6216 13.2436C11.061 13.4829 10.4604 13.6026 9.81976 13.6026H5.25523V16.2351C5.25523 16.953 5.11509 17.6311 4.83481 18.2693C4.55453 18.9075 4.17415 19.4659 3.69367 19.9445C3.23321 20.4232 2.68267 20.8021 2.04203 21.0813C1.40139 21.3406 0.720717 21.4702 0 21.4702V5.7948C0 5.07684 0.130129 4.39877 0.390388 3.76059C0.670667 3.12241 1.05104 2.564 1.53152 2.08536C2.012 1.60672 2.57256 1.2278 3.21319 0.948593C3.85383 0.669388 4.53451 0.529785 5.25523 0.529785H20.9909Z" fill="#FF734D"/>
  <path d="M39.1237 0.529785C39.8445 0.529785 40.5251 0.669388 41.1658 0.948593C41.8064 1.2278 42.367 1.60672 42.8474 2.08536C43.3279 2.564 43.6983 3.12241 43.9585 3.76059C44.2388 4.39877 44.379 5.07684 44.379 5.7948V16.2351C44.379 16.953 44.2388 17.6311 43.9585 18.2693C43.6983 18.9075 43.3279 19.4659 42.8474 19.9445C42.367 20.4232 41.8064 20.8021 41.1658 21.0813C40.5251 21.3406 39.8445 21.4702 39.1237 21.4702H28.6433C27.9226 21.4702 27.2419 21.3406 26.6013 21.0813C25.9607 20.8021 25.4001 20.4232 24.9196 19.9445C24.4391 19.4659 24.0588 18.9075 23.7785 18.2693C23.5182 17.6311 23.3881 16.953 23.3881 16.2351V5.7948C23.3881 5.07684 23.5182 4.39877 23.7785 3.76059C24.0588 3.12241 24.4391 2.564 24.9196 2.08536C25.4001 1.60672 25.9607 1.2278 26.6013 0.948593C27.2419 0.669388 27.9226 0.529785 28.6433 0.529785H39.1237ZM39.1237 7.08114C39.1237 6.76205 39.0537 6.51276 38.9135 6.33327C38.7734 6.15378 38.6232 6.02415 38.4631 5.94437C38.2629 5.8646 38.0427 5.81474 37.8024 5.7948H29.9646C29.6243 5.7948 29.364 5.8646 29.1839 6.0042C29.0037 6.14381 28.8736 6.29338 28.7935 6.45293C28.6934 6.65236 28.6433 6.86176 28.6433 7.08114V14.9188C28.6433 15.2579 28.7134 15.5171 28.8535 15.6966C28.9937 15.8761 29.1438 16.0057 29.304 16.0855C29.5042 16.1852 29.7244 16.2351 29.9646 16.2351H37.8024C38.1428 16.2351 38.393 16.1653 38.5532 16.0257C38.7133 15.8861 38.8435 15.7365 38.9436 15.577C39.0236 15.3775 39.0837 15.1581 39.1237 14.9188V7.08114Z" fill="#FF734D"/>
  <path d="M67.7671 9.71364C67.7671 10.3518 67.657 10.9601 67.4367 11.5385C67.2165 12.0969 66.9162 12.6054 66.5358 13.0641C66.1755 13.5228 65.735 13.9117 65.2145 14.2308C64.694 14.5299 64.1335 14.7393 63.5329 14.859L67.7671 20.8719C67.0263 21.2708 66.2155 21.4702 65.3346 21.4702C64.4338 21.4702 63.6129 21.2708 62.8722 20.8719C62.1315 20.473 61.5209 19.9246 61.0404 19.2266L58.0074 14.9188H52.0314V16.2351C52.0314 16.953 51.8913 17.6311 51.611 18.2693C51.3307 18.9075 50.9503 19.4659 50.4699 19.9445C50.0094 20.4232 49.4589 20.8021 48.8182 21.0813C48.1776 21.3406 47.4969 21.4702 46.7762 21.4702V2.50417C46.7762 1.9657 46.9664 1.507 47.3468 1.12808C47.7271 0.729218 48.1876 0.529785 48.7281 0.529785H62.5118C63.2326 0.529785 63.9132 0.669388 64.5539 0.948593C65.1945 1.2278 65.7551 1.60672 66.2355 2.08536C66.716 2.564 67.0864 3.12241 67.3466 3.76059C67.6269 4.39877 67.7671 5.07684 67.7671 5.7948V9.71364ZM61.1905 10.3419C61.5309 10.3419 61.7811 10.282 61.9413 10.1624C62.1014 10.0228 62.2316 9.87319 62.3317 9.71364C62.4117 9.51421 62.4718 9.29484 62.5118 9.05552V7.08114C62.5118 6.76205 62.4418 6.51276 62.3016 6.33327C62.1615 6.15378 62.0113 6.02415 61.8512 5.94437C61.651 5.8646 61.4308 5.81474 61.1905 5.7948H52.0314V10.3419H61.1905Z" fill="#FF734D"/>
  <path d="M85.8999 5.7948C85.8999 5.07684 86.0401 4.39877 86.3204 3.76059C86.6006 3.12241 86.971 2.564 87.4315 2.08536C87.9119 1.60672 88.4725 1.2278 89.1131 0.948593C89.7538 0.669388 90.4344 0.529785 91.1552 0.529785V20.0343C91.1552 20.4331 91.015 20.7722 90.7347 21.0514C90.4545 21.3306 90.1141 21.4702 89.7137 21.4702C89.3734 21.4702 89.0731 21.3605 88.8128 21.1411L75.4195 9.47433V16.2351C75.4195 16.953 75.2794 17.6311 74.9991 18.2693C74.7188 18.9075 74.3384 19.4659 73.858 19.9445C73.3975 20.4232 72.847 20.8021 72.2063 21.0813C71.5657 21.3406 70.885 21.4702 70.1643 21.4702V1.9657C70.1643 1.56683 70.3044 1.2278 70.5847 0.948593C70.865 0.669388 71.2053 0.529785 71.6057 0.529785C71.926 0.529785 72.2363 0.649445 72.5366 0.888764L85.8999 12.5256V5.7948Z" fill="#FF734D"/>
  <path d="M114.543 21.4702C113.823 21.4702 113.142 21.3406 112.501 21.0813C111.861 20.8021 111.3 20.4232 110.82 19.9445C110.359 19.4659 109.989 18.9075 109.708 18.2693C109.428 17.6311 109.288 16.953 109.288 16.2351V14.9188H98.8076V16.2351C98.8076 16.953 98.6675 17.6311 98.3872 18.2693C98.1069 18.9075 97.7265 19.4659 97.2461 19.9445C96.7856 20.4232 96.2351 20.8021 95.5944 21.0813C94.9538 21.3406 94.2731 21.4702 93.5524 21.4702V5.7948C93.5524 5.07684 93.6925 4.39877 93.9728 3.76059C94.2531 3.12241 94.6235 2.564 95.0839 2.08536C95.5644 1.60672 96.1249 1.2278 96.7656 0.948593C97.4062 0.669388 98.0869 0.529785 98.8076 0.529785H109.288C110.009 0.529785 110.689 0.669388 111.33 0.948593C111.971 1.2278 112.531 1.60672 113.012 2.08536C113.492 2.564 113.863 3.12241 114.123 3.76059C114.403 4.39877 114.543 5.07684 114.543 5.7948V21.4702ZM109.288 10.3419V7.08114C109.288 6.76205 109.218 6.51276 109.078 6.33327C108.938 6.15378 108.788 6.02415 108.627 5.94437C108.427 5.8646 108.217 5.81474 107.997 5.7948H100.129C99.8086 5.7948 99.5584 5.85463 99.3782 5.97429C99.218 6.09395 99.0879 6.23355 98.9878 6.3931C98.9077 6.5327 98.8577 6.6723 98.8376 6.8119C98.8176 6.95151 98.8076 7.04125 98.8076 7.08114V10.3419H109.288Z" fill="#FF734D"/>
  <path d="M132.226 11L140.424 19.9744C139.963 20.4331 139.433 20.8021 138.832 21.0813C138.232 21.3406 137.581 21.4702 136.88 21.4702C136.14 21.4702 135.459 21.3306 134.838 21.0514C134.218 20.7522 133.677 20.3534 133.217 19.8548L128.682 14.8889L124.148 19.8548C123.687 20.3534 123.137 20.7522 122.496 21.0514C121.875 21.3306 121.205 21.4702 120.484 21.4702C119.783 21.4702 119.133 21.3406 118.532 21.0813C117.931 20.8021 117.401 20.4331 116.94 19.9744L125.139 11L116.94 2.02553C117.401 1.56683 117.931 1.20786 118.532 0.948593C119.133 0.689331 119.783 0.5597 120.484 0.5597C121.225 0.5597 121.895 0.699302 122.496 0.978508C123.117 1.25771 123.657 1.65658 124.118 2.1751L128.682 7.14097L133.217 2.1751C133.677 1.67652 134.218 1.28763 134.838 1.00842C135.459 0.709274 136.14 0.5597 136.88 0.5597C137.581 0.5597 138.232 0.689331 138.832 0.948593C139.433 1.20786 139.963 1.56683 140.424 2.02553L132.226 11Z" fill="#FF734D"/>
</svg>